<svg width="140" height="45" viewBox="0 0 140 45" fill="none" xmlns="http://www.w3.org/2000/svg">
<path d="M11.0151 29.9734C5.89656 29.9734 1.51509 27.885 0.0818965 24.8139L2.49785 23.9949C3.76724 27.2298 6.67457 28.8678 11.097 28.8678C15.3966 28.8678 18.3448 26.5337 18.3448 23.0941C18.3448 19.2859 15.1918 18.4259 10.8513 17.1565C5.89656 15.7643 0 13.7988 0 8.27076C0 3.27507 5.9375 0.408691 11.7522 0.408691C16.8298 0.408691 21.1293 2.49705 22.5625 5.56818L20.1466 6.38714C18.8772 3.11128 16.0108 1.5143 11.6703 1.5143C7.37069 1.5143 4.42242 3.8074 4.42242 7.24706C4.42242 11.0552 7.53449 11.7923 11.916 13.0617C17.0345 14.5359 22.7673 16.5423 22.7673 22.1113C22.7673 27.107 16.8298 29.9734 11.0151 29.9734Z" fill="white"/>
<path d="M43.7296 29.9324C35.6218 29.9324 27.4322 24.8548 27.4322 15.232C27.4322 5.65007 35.6218 0.449639 43.7705 0.449639C51.9602 0.449639 60.1089 5.65007 60.1089 15.232C60.1089 24.8139 51.9192 29.9324 43.7296 29.9324ZM43.7705 28.8268C50.6499 28.8268 55.4818 23.2169 55.4818 15.232C55.4818 7.32895 50.527 1.55524 43.7705 1.55524C37.0141 1.55524 32.0593 7.32895 32.0593 15.232C32.0593 23.1759 36.9322 28.8268 43.7705 28.8268Z" fill="white"/>
<path d="M66.0211 29.5229V0.859122H70.4436V28.4173H86.1268V29.5229H66.0211Z" fill="white"/>
<path d="M97.178 29.5229L85.5077 0.859122H90.1349L100.618 26.6156L110.937 0.859122H112.165L100.7 29.4001V29.5229H97.178Z" fill="white"/>
<path d="M113.179 29.5229L124.685 0.859122H128.33L140 29.5229H135.373L131.483 19.982H118.256L114.407 29.5229H113.179ZM118.666 18.8764H131.032L124.808 3.56171L118.666 18.8764Z" fill="white"/>
<path d="M18.6653 44.5714L17.2894 42.2153H15.9136V44.5714H15.1654V38.552H17.4442C18.0118 38.552 18.479 38.7269 18.8459 39.0766C19.2185 39.4205 19.4048 39.8591 19.4048 40.3923C19.4048 40.8107 19.2844 41.1776 19.0437 41.4929C18.8029 41.8025 18.4818 42.0146 18.0805 42.1293L19.5166 44.5714H18.6653ZM15.9136 39.2658V41.5015H17.4098C17.771 41.5015 18.0662 41.3983 18.2955 41.192C18.5248 40.9799 18.6395 40.7104 18.6395 40.3837C18.6395 40.0569 18.5248 39.7903 18.2955 39.5839C18.0662 39.3718 17.771 39.2658 17.4098 39.2658H15.9136Z" fill="white"/>
<path d="M22.0495 43.8491H24.8012V44.5714H21.3014V38.552H24.7067V39.2658H22.0495V41.1318H24.4831V41.8283H22.0495V43.8491Z" fill="white"/>
<path d="M28.445 44.6488C27.78 44.6488 27.244 44.474 26.837 44.1243C26.4299 43.7746 26.2264 43.3045 26.2264 42.714H26.9917C26.9917 43.0809 27.1265 43.3733 27.3959 43.5911C27.6653 43.8032 28.0122 43.9093 28.4364 43.9093C28.6886 43.9093 28.9151 43.8692 29.1157 43.7889C29.3221 43.7029 29.4855 43.5797 29.6059 43.4192C29.732 43.2586 29.7951 43.0752 29.7951 42.8688C29.7951 42.7713 29.7779 42.6825 29.7435 42.6022C29.7148 42.5162 29.6775 42.4446 29.6317 42.3873C29.5916 42.3299 29.5285 42.2755 29.4425 42.2239C29.3565 42.1665 29.282 42.1235 29.2189 42.0949C29.1559 42.0605 29.0584 42.0232 28.9266 41.9831C28.8004 41.943 28.7001 41.9143 28.6256 41.8971C28.5568 41.8799 28.4479 41.8541 28.2988 41.8197C28.1211 41.7738 27.9835 41.7395 27.8861 41.7165C27.7943 41.6936 27.6682 41.6563 27.5077 41.6047C27.3472 41.5474 27.2211 41.4958 27.1293 41.4499C27.0433 41.3984 26.9402 41.3296 26.8198 41.2436C26.7051 41.1576 26.6163 41.0659 26.5532 40.9684C26.4959 40.8709 26.4443 40.7534 26.3984 40.6158C26.3583 40.4725 26.3382 40.3177 26.3382 40.1515C26.3382 39.6355 26.5217 39.2285 26.8886 38.9304C27.2612 38.6266 27.7599 38.4746 28.3848 38.4746C29.0097 38.4746 29.4998 38.6352 29.8553 38.9562C30.2164 39.2772 30.397 39.7101 30.397 40.2547H29.6489C29.6489 39.9279 29.5285 39.6699 29.2877 39.4807C29.0527 39.2916 28.7488 39.197 28.3762 39.197C27.9978 39.197 27.6883 39.2801 27.4475 39.4463C27.2125 39.6126 27.0949 39.8362 27.0949 40.1171C27.0949 40.2088 27.1093 40.2948 27.1379 40.3751C27.1666 40.4496 27.201 40.5155 27.2411 40.5728C27.287 40.6302 27.35 40.6846 27.4303 40.7362C27.5163 40.7878 27.5908 40.8308 27.6539 40.8652C27.7169 40.8939 27.8087 40.9283 27.9291 40.9684C28.0552 41.0028 28.1555 41.0286 28.23 41.0458C28.3045 41.063 28.4135 41.0916 28.5568 41.1318C28.7001 41.1662 28.8062 41.192 28.875 41.2092C28.9495 41.2264 29.0527 41.255 29.1845 41.2952C29.3221 41.3353 29.4282 41.3726 29.5027 41.407C29.5772 41.4356 29.6689 41.4786 29.7779 41.5359C29.8925 41.5875 29.9814 41.642 30.0444 41.6993C30.1075 41.7566 30.1763 41.8254 30.2508 41.9057C30.3311 41.986 30.3884 42.0719 30.4228 42.1637C30.4629 42.2554 30.4973 42.3615 30.526 42.4818C30.5547 42.6022 30.569 42.7284 30.569 42.8602C30.569 43.4163 30.3683 43.8548 29.9671 44.1759C29.5715 44.4912 29.0641 44.6488 28.445 44.6488Z" fill="white"/>
<path d="M37.3854 43.7889C36.7892 44.3794 36.0353 44.6746 35.1238 44.6746C34.218 44.6746 33.467 44.3794 32.8708 43.7889C32.2746 43.1984 31.9765 42.4589 31.9765 41.5703C31.9765 40.676 32.2746 39.9336 32.8708 39.3432C33.467 38.7469 34.218 38.4488 35.1238 38.4488C36.0353 38.4488 36.7892 38.7441 37.3854 39.3346C37.9816 39.925 38.2797 40.6674 38.2797 41.5617C38.2797 42.456 37.9816 43.1984 37.3854 43.7889ZM33.4212 43.2558C33.874 43.7087 34.4416 43.9351 35.1238 43.9351C35.8117 43.9351 36.3793 43.7115 36.8264 43.2644C37.2793 42.8115 37.5057 42.2439 37.5057 41.5617C37.5057 40.8795 37.2793 40.3149 36.8264 39.8677C36.3793 39.4148 35.8117 39.1884 35.1238 39.1884C34.4416 39.1884 33.874 39.4148 33.4212 39.8677C32.974 40.3206 32.7504 40.8853 32.7504 41.5617C32.7504 42.2382 32.974 42.8029 33.4212 43.2558Z" fill="white"/>
<path d="M43.6206 44.5714L42.2447 42.2153H40.8689V44.5714H40.1208V38.552H42.3995C42.9671 38.552 43.4343 38.7269 43.8012 39.0766C44.1738 39.4205 44.3601 39.8591 44.3601 40.3923C44.3601 40.8107 44.2397 41.1776 43.999 41.4929C43.7582 41.8025 43.4372 42.0146 43.0359 42.1293L44.4719 44.5714H43.6206ZM40.8689 39.2658V41.5015H42.3651C42.7263 41.5015 43.0215 41.3983 43.2508 41.192C43.4802 40.9799 43.5948 40.7104 43.5948 40.3837C43.5948 40.0569 43.4802 39.7903 43.2508 39.5839C43.0215 39.3718 42.7263 39.2658 42.3651 39.2658H40.8689Z" fill="white"/>
<path d="M49.9394 38.552V39.2572H48.1077V44.5714H47.351V39.2572H45.5194V38.552H49.9394Z" fill="white"/>
<path d="M61.1284 44.5714H60.3631L59.5806 39.8677L57.4996 44.4166H57.3018L55.2208 39.8763L54.4383 44.5714H53.6643L54.679 38.552H55.4014L57.3964 42.972L59.3914 38.552H60.1309L61.1284 44.5714Z" fill="white"/>
<path d="M63.6912 43.8491H66.4429V44.5714H62.9431V38.552H66.3484V39.2658H63.6912V41.1318H66.1248V41.8283H63.6912V43.8491Z" fill="white"/>
<path d="M70.3017 38.552C71.1845 38.552 71.9126 38.8358 72.4858 39.4034C73.0649 39.9709 73.3544 40.6904 73.3544 41.5617C73.3544 42.4331 73.0649 43.1526 72.4858 43.7201C71.9126 44.2877 71.1845 44.5714 70.3017 44.5714H68.2981V38.552H70.3017ZM70.2759 43.8663C70.9523 43.8663 71.5055 43.6485 71.9355 43.2128C72.3655 42.7771 72.5804 42.2267 72.5804 41.5617C72.5804 41.1203 72.483 40.7248 72.2881 40.3751C72.0932 40.0254 71.8208 39.753 71.4712 39.5581C71.1215 39.3575 70.723 39.2572 70.2759 39.2572H69.0462V43.8663H70.2759Z" fill="white"/>
<path d="M75.2066 44.5714V38.552H75.9547V44.5714H75.2066Z" fill="white"/>
<path d="M80.8846 44.666C79.9903 44.666 79.2508 44.3737 78.666 43.7889C78.087 43.2042 77.7975 42.4618 77.7975 41.5617C77.7975 40.6617 78.087 39.9193 78.666 39.3346C79.2508 38.7498 79.9903 38.4574 80.8846 38.4574C81.3432 38.4574 81.7674 38.5463 82.1573 38.724C82.5528 38.896 82.8853 39.1425 83.1548 39.4635C83.4299 39.7846 83.622 40.1601 83.7309 40.59H82.9656C82.8051 40.1543 82.5414 39.8132 82.1745 39.5667C81.8076 39.3202 81.3776 39.197 80.8846 39.197C80.2081 39.197 79.652 39.4205 79.2164 39.8677C78.7864 40.3091 78.5714 40.8767 78.5714 41.5703C78.5714 42.2583 78.7864 42.8229 79.2164 43.2644C79.652 43.7058 80.2081 43.9265 80.8846 43.9265C81.3891 43.9265 81.8276 43.7975 82.2003 43.5395C82.5729 43.2758 82.8366 42.9118 82.9914 42.4474H83.7653C83.5933 43.1296 83.2465 43.6714 82.7248 44.0727C82.2089 44.4682 81.5955 44.666 80.8846 44.666Z" fill="white"/>
<path d="M89.5505 44.5714L88.9486 43.1268H86.0593L85.4659 44.5714H84.6662L87.1255 38.552H87.8307L90.3674 44.5714H89.5505ZM87.4953 39.5925L86.343 42.4389H88.6648L87.4953 39.5925Z" fill="white"/>
<path d="M92.6915 43.8663H95.34V44.5714H91.9434V38.552H92.6915V43.8663Z" fill="white"/>
<path d="M104.018 44.5714H103.193C103.027 44.3937 102.857 44.2131 102.686 44.0297C102.21 44.4539 101.616 44.666 100.905 44.666C100.355 44.666 99.9137 44.5198 99.5812 44.2275C99.2487 43.9294 99.0825 43.5395 99.0825 43.058C99.0825 42.9204 99.0968 42.7885 99.1255 42.6624C99.1541 42.5306 99.1971 42.4131 99.2544 42.3099C99.3118 42.2009 99.3748 42.1006 99.4436 42.0089C99.5124 41.9114 99.5955 41.8226 99.693 41.7423C99.7905 41.6563 99.885 41.5789 99.9768 41.5101C100.068 41.4413 100.175 41.3697 100.295 41.2952C100.037 40.9569 99.8593 40.6732 99.7618 40.4438C99.6643 40.2088 99.6156 39.9766 99.6156 39.7473C99.6156 39.3518 99.7532 39.0393 100.028 38.81C100.309 38.575 100.679 38.4574 101.138 38.4574C101.579 38.4574 101.937 38.575 102.213 38.81C102.493 39.0393 102.634 39.3403 102.634 39.7129C102.634 39.8792 102.605 40.0397 102.548 40.1945C102.496 40.3435 102.43 40.4725 102.35 40.5814C102.27 40.6846 102.161 40.7964 102.023 40.9168C101.886 41.0315 101.763 41.126 101.654 41.2006C101.545 41.2694 101.404 41.3525 101.232 41.4499C101.559 41.857 102.026 42.3987 102.634 43.0752C102.846 42.7255 102.952 42.3299 102.952 41.8885H103.571C103.571 42.5363 103.411 43.0981 103.09 43.5739C103.359 43.8606 103.669 44.1931 104.018 44.5714ZM101.138 39.0336C100.874 39.0336 100.662 39.0995 100.501 39.2314C100.347 39.3632 100.269 39.5352 100.269 39.7473C100.269 40.0225 100.464 40.4295 100.854 40.9684C101.227 40.7505 101.507 40.5499 101.697 40.3665C101.886 40.183 101.98 39.9652 101.98 39.7129C101.98 39.5123 101.9 39.3489 101.74 39.2228C101.585 39.0966 101.384 39.0336 101.138 39.0336ZM100.966 44.0039C101.453 44.0039 101.877 43.8491 102.238 43.5395C101.539 42.7771 101.02 42.1923 100.682 41.7853C100.39 41.9688 100.163 42.1579 100.003 42.3529C99.8478 42.5478 99.7704 42.7771 99.7704 43.0408C99.7704 43.3274 99.8793 43.5596 100.097 43.7373C100.321 43.915 100.61 44.0039 100.966 44.0039Z" fill="white"/>
<path d="M109.962 44.6488C109.297 44.6488 108.761 44.474 108.354 44.1243C107.947 43.7746 107.744 43.3045 107.744 42.714H108.509C108.509 43.0809 108.644 43.3733 108.913 43.5911C109.183 43.8032 109.529 43.9093 109.954 43.9093C110.206 43.9093 110.432 43.8692 110.633 43.7889C110.839 43.7029 111.003 43.5797 111.123 43.4192C111.249 43.2586 111.312 43.0752 111.312 42.8688C111.312 42.7713 111.295 42.6825 111.261 42.6022C111.232 42.5162 111.195 42.4446 111.149 42.3873C111.109 42.3299 111.046 42.2755 110.96 42.2239C110.874 42.1665 110.799 42.1235 110.736 42.0949C110.673 42.0605 110.576 42.0232 110.444 41.9831C110.318 41.943 110.217 41.9143 110.143 41.8971C110.074 41.8799 109.965 41.8541 109.816 41.8197C109.638 41.7738 109.501 41.7395 109.403 41.7165C109.312 41.6936 109.185 41.6563 109.025 41.6047C108.864 41.5474 108.738 41.4958 108.647 41.4499C108.561 41.3984 108.457 41.3296 108.337 41.2436C108.222 41.1576 108.133 41.0659 108.07 40.9684C108.013 40.8709 107.961 40.7534 107.916 40.6158C107.875 40.4725 107.855 40.3177 107.855 40.1515C107.855 39.6355 108.039 39.2285 108.406 38.9304C108.778 38.6266 109.277 38.4746 109.902 38.4746C110.527 38.4746 111.017 38.6352 111.372 38.9562C111.734 39.2772 111.914 39.7101 111.914 40.2547H111.166C111.166 39.9279 111.046 39.6699 110.805 39.4807C110.57 39.2916 110.266 39.197 109.893 39.197C109.515 39.197 109.205 39.2801 108.965 39.4463C108.73 39.6126 108.612 39.8362 108.612 40.1171C108.612 40.2088 108.626 40.2948 108.655 40.3751C108.684 40.4496 108.718 40.5155 108.758 40.5728C108.804 40.6302 108.867 40.6846 108.948 40.7362C109.033 40.7878 109.108 40.8308 109.171 40.8652C109.234 40.8939 109.326 40.9283 109.446 40.9684C109.572 41.0028 109.673 41.0286 109.747 41.0458C109.822 41.063 109.931 41.0916 110.074 41.1318C110.217 41.1662 110.323 41.192 110.392 41.2092C110.467 41.2264 110.57 41.255 110.702 41.2952C110.839 41.3353 110.945 41.3726 111.02 41.407C111.094 41.4356 111.186 41.4786 111.295 41.5359C111.41 41.5875 111.499 41.642 111.562 41.6993C111.625 41.7566 111.693 41.8254 111.768 41.9057C111.848 41.986 111.906 42.0719 111.94 42.1637C111.98 42.2554 112.015 42.3615 112.043 42.4818C112.072 42.6022 112.086 42.7284 112.086 42.8602C112.086 43.4163 111.886 43.8548 111.484 44.1759C111.089 44.4912 110.581 44.6488 109.962 44.6488Z" fill="white"/>
<path d="M116.065 38.552C116.632 38.552 117.105 38.7355 117.484 39.1024C117.868 39.4693 118.06 39.9279 118.06 40.4782C118.06 41.0286 117.868 41.4872 117.484 41.8541C117.105 42.221 116.632 42.4044 116.065 42.4044H114.655V44.5714H113.906V38.552H116.065ZM116.022 41.6735C116.389 41.6735 116.69 41.5617 116.925 41.3382C117.166 41.1088 117.286 40.8222 117.286 40.4782C117.286 40.1343 117.166 39.8505 116.925 39.6269C116.69 39.3976 116.389 39.283 116.022 39.283H114.655V41.6735H116.022Z" fill="white"/>
<path d="M123.55 44.5714L122.948 43.1268H120.059L119.466 44.5714H118.666L121.125 38.552H121.831L124.367 44.5714H123.55ZM121.495 39.5925L120.343 42.4389H122.665L121.495 39.5925Z" fill="white"/>
</svg>
