<?xml version="1.0" encoding="UTF-8"?>
<!DOCTYPE svg PUBLIC "-//W3C//DTD SVG 1.1//EN" "http://www.w3.org/Graphics/SVG/1.1/DTD/svg11.dtd">
<!-- Creator: CorelDRAW 2018 (64-Bit) -->
<svg xmlns="http://www.w3.org/2000/svg" xml:space="preserve" width="210px" height="80px" version="1.1" style="shape-rendering:geometricPrecision; text-rendering:geometricPrecision; image-rendering:optimizeQuality; fill-rule:evenodd; clip-rule:evenodd"
viewBox="0 0 1050.106 400.045"
 xmlns:xlink="http://www.w3.org/1999/xlink">
 <defs>
  <style type="text/css">
   <![CDATA[
    .fil0 {fill:#C2B3AE}
   ]]>
  </style>
 </defs>
 <g id="Слой_x0020_1">
  <metadata id="CorelCorpID_0Corel-Layer"/>
  <path class="fil0" d="M142.871 171.45l14.288 0c0,-38.098 0,-76.194 0,-114.29l-14.288 0c0,38.096 0,76.192 0,114.29zm-128.576 214.305c0,-123.823 0,-247.644 0,-371.465 90.481,0 180.96,0 271.441,0 0,123.821 0,247.642 0,371.465 -90.481,0 -180.96,0 -271.441,0zm-14.295 14.29c100.003,0 200.008,0 300.012,0 0,-133.333 0.011,-266.7 0.011,-400.045l-14.287 0c-95.242,0 -190.485,0 -285.727,0 0,133.35 -0.009,266.696 -0.009,400.045zm200.029 -342.885l-14.288 0c0,42.858 -0.004,85.715 -0.004,128.576 -23.815,0 -47.632,0 -71.447,0 0,-42.861 -0.003,-85.718 -0.003,-128.576l-14.286 0 0 242.867 14.289 0c0,-33.335 0,-66.67 0,-100.005 23.815,0 47.632,0 71.447,0 0,33.335 0,66.67 0,100.005l14.292 0c0,-80.957 0,-161.91 0,-242.867zm-28.579 285.725c23.815,0 47.63,0 71.448,0 0,-95.241 0,-190.483 0,-285.725l-14.289 0c0,90.479 -0.003,180.959 -0.003,271.441 -17.081,0 -34.163,0 -51.244,0l-20.203 -20.202c0,-31.363 0,-62.728 0,-94.09l-14.288 0c0,31.363 0,62.727 0,94.09l-20.204 20.202c-17.082,0 -34.164,0 -51.247,0 0,-90.481 0,-180.962 0,-271.441l-14.288 0c0,95.242 0,190.484 0,285.725 23.816,0 47.63,0 71.448,0l21.434 -21.428 21.436 21.428z"/>
  <path class="fil0" d="M682.949 149.656l-37.71 0 0 -11.535 37.71 0 0 11.535zm-18.433 -92.415l-23.431 0 0 58.333 -14.29 0 0 -58.333 -23.428 0 0 -13.116 61.149 0 0 13.116zm-70.605 58.333l-14.29 0 0 -71.449 14.29 0 0 71.449zm-28.998 -71.449l0 71.449 -14.289 0 0 -29.326 -33.623 0 0 29.326 -14.288 0 0 -71.449 14.288 0 0 29.009 33.623 0 0 -29.009 14.289 0zm-70.603 0l-20.49 71.449 -15.34 0 -13.658 -48.201 -13.764 48.201 -15.232 0 -20.492 -71.449 14.921 0 13.449 49.269 14.185 -49.269 13.762 0 14.183 49.269 13.451 -49.269 15.025 0zm233.14 58.332l0 13.117 -53.477 0 0 -71.449 53.266 0 0 13.116 -38.979 0 0 16.156 32.517 0 0 12.904 -32.517 0 0 16.156 39.19 0zm293.762 -59.965c7.144,0 13.24,1.848 18.282,5.545 5.044,3.698 8.231,8.71 9.562,15.038l-14.29 2.987c-0.49,-3.343 -2.03,-6.026 -4.622,-8.053 -2.593,-2.027 -5.674,-3.039 -9.246,-3.039 -3.432,0 -6.199,0.853 -8.3,2.56 -2.102,1.705 -3.154,3.803 -3.154,6.292 0,3.911 2.348,6.328 7.042,7.253l15.128 3.092c5.814,1.28 10.349,3.644 13.606,7.093 3.258,3.447 4.886,7.91 4.886,13.384 0,6.899 -2.555,12.373 -7.67,16.426 -5.113,4.052 -11.873,6.079 -20.277,6.079 -7.775,0 -14.413,-1.833 -19.91,-5.493 -5.498,-3.662 -8.668,-8.906 -9.508,-15.731l15.024 -3.094c1.821,7.751 7.073,11.626 15.759,11.626 3.993,0 7.075,-0.853 9.247,-2.561 2.173,-1.706 3.257,-3.873 3.257,-6.505 0,-2.133 -0.614,-3.803 -1.84,-5.012 -1.225,-1.209 -3.344,-2.132 -6.356,-2.773l-14.919 -2.88c-12.328,-2.63 -18.492,-9.456 -18.492,-20.477 0,-6.471 2.418,-11.714 7.25,-15.733 4.832,-4.016 11.347,-6.024 19.541,-6.024zm-36.351 59.938l0 13.119 -50.642 0 0 -71.458 14.289 0 0 58.339 36.353 0zm-62.199 0l0 13.119 -50.644 0 0 -71.458 14.291 0 0 58.339 36.353 0zm-65.352 13.119l-14.289 0 0 -71.458 14.289 0 0 71.458zm-28.997 -71.458l0 71.458 -14.29 0 0 -29.329 -33.621 0 0 29.329 -14.288 0 0 -71.458 14.288 0 0 29.01 33.621 0 0 -29.01 14.29 0zm63.879 177.04l0 13.119 -50.641 0 0 -71.458 14.289 0 0 58.339 36.352 0zm-63.776 0l0 13.119 -53.477 0 0 -71.458 53.268 0 0 13.119 -38.98 0 0 16.104 35.933 0 0 12.906 -35.933 0 0 16.21 39.189 0zm-62.933 -45.22l-23.432 0 0 58.339 -14.287 0 0 -58.339 -23.43 0 0 -13.119 61.149 0 0 13.119zm-117.516 39.569c4.378,4.478 9.752,6.719 16.128,6.719 6.373,0 11.749,-2.241 16.126,-6.719 4.379,-4.481 6.568,-10.097 6.568,-16.852 0,-6.755 -2.189,-12.408 -6.568,-16.958 -4.377,-4.55 -9.753,-6.825 -16.126,-6.825 -6.376,0 -11.75,2.275 -16.128,6.825 -4.378,4.55 -6.568,10.203 -6.568,16.958 0,6.755 2.19,12.371 6.568,16.852zm-10.192 -43.409c7.179,-7.252 15.954,-10.878 26.32,-10.878 10.364,0 19.139,3.626 26.318,10.878 7.18,7.253 10.77,16.105 10.77,26.557 0,10.381 -3.59,19.179 -10.77,26.397 -7.179,7.217 -15.954,10.826 -26.318,10.826 -10.366,0 -19.141,-3.609 -26.32,-10.826 -7.18,-7.218 -10.769,-16.016 -10.769,-26.397 0,-10.452 3.589,-19.304 10.769,-26.557zm-22.327 -9.279l0 71.458 -14.29 0 0 -29.329 -33.619 0 0 29.329 -14.29 0 0 -71.458 14.29 0 0 29.01 33.619 0 0 -29.01 14.29 0zm71.556 114.31l0 -7.144 71.433 0 0 7.144 -71.433 0zm240.867 43.579l-14.27 0 0 35.004 -8.7 0 0 -35.004 -14.271 0 0 -7.871 37.241 0 0 7.871zm-66.549 11.391l11.839 0c2.002,0 3.626,-0.521 4.862,-1.568 1.236,-1.044 1.855,-2.422 1.855,-4.127 0,-1.707 -0.619,-3.082 -1.855,-4.128 -1.236,-1.045 -2.86,-1.568 -4.862,-1.568l-11.839 0 0 11.391zm29.306 23.613l-10.62 0 -14.142 -15.742 -4.544 0 0 15.742 -8.702 0 0 -42.875 20.541 0c4.606,0 8.317,1.249 11.134,3.744 2.814,2.497 4.223,5.77 4.223,9.823 0,3.583 -1.112,6.568 -3.327,8.958 -2.219,2.389 -5.207,3.86 -8.96,4.414l14.397 15.936zm-77.458 -11.264c2.666,2.688 5.939,4.032 9.822,4.032 3.881,0 7.155,-1.344 9.823,-4.032 2.665,-2.689 3.998,-6.058 3.998,-10.109 0,-4.053 -1.333,-7.445 -3.998,-10.176 -2.668,-2.73 -5.942,-4.095 -9.823,-4.095 -3.883,0 -7.156,1.365 -9.822,4.095 -2.666,2.731 -4,6.123 -4,10.176 0,4.051 1.334,7.42 4,10.109zm-6.209 -26.043c4.375,-4.352 9.717,-6.526 16.031,-6.526 6.313,0 11.657,2.174 16.029,6.526 4.372,4.35 6.56,9.663 6.56,15.934 0,6.227 -2.188,11.505 -6.56,15.837 -4.372,4.328 -9.716,6.495 -16.029,6.495 -6.314,0 -11.656,-2.167 -16.031,-6.495 -4.373,-4.332 -6.558,-9.61 -6.558,-15.837 0,-6.271 2.185,-11.584 6.558,-15.934zm-38.487 15.422l11.262 0c2.302,0 4.085,-0.598 5.344,-1.793 1.256,-1.194 1.888,-2.795 1.888,-4.8 0,-1.96 -0.632,-3.541 -1.888,-4.735 -1.259,-1.193 -3.042,-1.791 -5.344,-1.791l-11.262 0 0 13.119zm-8.703 -20.99l19.965 0c4.862,0 8.723,1.313 11.581,3.935 2.857,2.625 4.286,6.111 4.286,10.462 0,4.396 -1.416,7.904 -4.255,10.527 -2.835,2.625 -6.706,3.936 -11.612,3.936l-11.262 0 0 14.015 -8.703 0 0 -42.875zm-25.276 -0.958c4.352,0 8.063,1.108 11.135,3.327 3.07,2.218 5.013,5.224 5.823,9.023l-8.702 1.789c-0.298,-2.006 -1.238,-3.614 -2.817,-4.829 -1.577,-1.216 -3.456,-1.826 -5.629,-1.826 -2.09,0 -3.779,0.513 -5.056,1.537 -1.283,1.023 -1.92,2.283 -1.92,3.774 0,2.349 1.43,3.799 4.286,4.353l9.215 1.856c3.541,0.767 6.302,2.187 8.287,4.255 1.984,2.07 2.975,4.746 2.975,8.032 0,4.136 -1.555,7.423 -4.669,9.853 -3.116,2.431 -7.232,3.648 -12.351,3.648 -4.736,0 -8.778,-1.1 -12.126,-3.295 -3.351,-2.198 -5.28,-5.343 -5.791,-9.439l9.15 -1.857c1.107,4.652 4.308,6.975 9.598,6.975 2.434,0 4.308,-0.512 5.633,-1.534 1.318,-1.023 1.983,-2.326 1.983,-3.905 0,-1.278 -0.376,-2.282 -1.121,-3.005 -0.746,-0.727 -2.037,-1.283 -3.871,-1.665l-9.088 -1.728c-7.507,-1.579 -11.26,-5.674 -11.26,-12.287 0,-3.881 1.47,-7.028 4.414,-9.438 2.944,-2.409 6.91,-3.614 11.902,-3.614zm-60.279 37.688c2.476,0 4.714,-0.725 6.721,-2.176l-11.52 -10.173c-2.687,1.535 -4.031,3.497 -4.031,5.886 0,1.962 0.809,3.53 2.432,4.704 1.621,1.172 3.755,1.759 6.398,1.759zm18.237 8l-5.758 -5.055c-3.33,2.771 -7.489,4.159 -12.479,4.159 -5.118,0 -9.248,-1.239 -12.382,-3.711 -3.136,-2.475 -4.702,-5.76 -4.702,-9.856 0,-4.606 2.43,-8.211 7.294,-10.812 -2.048,-2.563 -3.07,-5.419 -3.07,-8.579 0,-3.494 1.29,-6.343 3.871,-8.54 2.58,-2.196 5.833,-3.294 9.758,-3.294 3.924,0 7.059,1.108 9.405,3.327 2.348,2.218 3.775,5.183 4.288,8.894l-7.935 1.406c-0.298,-4.351 -2.217,-6.526 -5.758,-6.526 -1.62,0 -2.944,0.427 -3.967,1.28 -1.025,0.854 -1.537,2.07 -1.537,3.648 0,1.366 0.396,2.633 1.184,3.805 0.791,1.174 2.249,2.68 4.384,4.512l10.172 8.895c0.387,-1.322 0.577,-2.814 0.577,-4.479l0 -3.262 7.488 0 0 3.262c0,3.712 -0.66,6.998 -1.984,9.857l6.143 5.374 -4.992 5.695zm-70.453 -18.878l-6.207 -15.293 -6.271 15.293 12.478 0zm16.382 17.023l-9.408 0 -3.71 -9.152 -18.942 0 -3.776 9.152 -9.405 0 18.556 -42.875 8.127 0 18.558 42.875zm-69.492 -21.885l11.261 0c2.302,0 4.084,-0.598 5.343,-1.793 1.26,-1.194 1.887,-2.795 1.887,-4.8 0,-1.96 -0.627,-3.541 -1.887,-4.735 -1.259,-1.193 -3.041,-1.791 -5.343,-1.791l-11.261 0 0 13.119zm-8.702 -20.99l19.963 0c4.862,0 8.724,1.313 11.583,3.935 2.859,2.625 4.286,6.111 4.286,10.462 0,4.396 -1.417,7.904 -4.255,10.527 -2.837,2.625 -6.709,3.936 -11.614,3.936l-11.261 0 0 14.015 -8.702 0 0 -42.875zm-25.277 -0.958c4.355,0 8.063,1.108 11.136,3.327 3.07,2.218 5.012,5.224 5.823,9.023l-8.704 1.789c-0.299,-2.006 -1.237,-3.614 -2.815,-4.829 -1.579,-1.216 -3.455,-1.826 -5.63,-1.826 -2.092,0 -3.776,0.513 -5.055,1.537 -1.282,1.023 -1.919,2.283 -1.919,3.774 0,2.349 1.427,3.799 4.285,4.353l9.215 1.856c3.541,0.767 6.302,2.187 8.287,4.255 1.983,2.07 2.975,4.746 2.975,8.032 0,4.136 -1.556,7.423 -4.671,9.853 -3.115,2.431 -7.232,3.648 -12.351,3.648 -4.733,0 -8.778,-1.1 -12.126,-3.295 -3.346,-2.198 -5.278,-5.343 -5.79,-9.439l9.151 -1.857c1.109,4.652 4.308,6.975 9.597,6.975 2.432,0 4.309,-0.512 5.631,-1.534 1.323,-1.023 1.985,-2.326 1.985,-3.905 0,-1.278 -0.374,-2.282 -1.122,-3.005 -0.744,-0.727 -2.035,-1.283 -3.869,-1.665l-9.088 -1.728c-7.507,-1.579 -11.262,-5.674 -11.262,-12.287 0,-3.881 1.475,-7.028 4.416,-9.438 2.944,-2.409 6.91,-3.614 11.901,-3.614z"/>
 </g>
</svg>
